<svg width="170" height="105" viewBox="0 0 170 105" fill="none" xmlns="http://www.w3.org/2000/svg">
<circle cx="85.5" cy="52.5" r="47.5" fill="#4CB029"/>
<g clip-path="url(#clip0)">
<path d="M104.654 56.0554L96.2923 42.9475C97.477 42.3249 98.2875 41.0825 98.2875 39.6538C98.2875 38.09 97.3167 36.7494 95.9465 36.2006L98.4795 27.3447C98.5888 26.9626 98.4823 26.5514 98.2014 26.2704C96.5163 24.5855 93.7748 24.5855 92.0898 26.2704C91.6867 26.6735 91.1508 26.8954 90.5809 26.8954C90.0109 26.8954 89.475 26.6735 89.0694 26.2678L89.0641 26.2624C87.3851 24.5832 84.6482 24.5785 82.9624 26.2525L82.931 26.2838C82.099 27.1099 80.7476 27.1075 79.9186 26.2784L79.9106 26.2704C78.2255 24.5855 75.484 24.5855 73.799 26.2704C73.5179 26.5516 73.4114 26.9631 73.5209 27.3454L76.0595 36.1986C74.6863 36.7459 73.7129 38.0879 73.7129 39.6539C73.7129 41.0827 74.5232 42.325 75.708 42.9476L67.3463 56.0554C64.1115 61.1263 63.9065 67.3026 66.798 72.5769C69.6895 77.8512 75.0068 81.0001 81.0218 81.0001H90.9784C96.9932 81.0001 102.311 77.8512 105.202 72.5769C108.094 67.3026 107.889 61.1263 104.654 56.0554ZM78.3636 27.8173L78.3716 27.8253C80.0508 29.5044 82.7875 29.509 84.4732 27.8352L84.5046 27.8039C85.3366 26.9778 86.688 26.9802 87.5196 27.8118L87.525 27.8172C89.21 29.5021 91.9515 29.5021 93.6365 27.8172C94.3222 27.1316 95.362 27.0109 96.1723 27.4552L93.7471 35.9348H78.2598L75.8282 27.4551C76.6385 27.0109 77.6781 27.1318 78.3636 27.8173ZM103.284 71.5253C100.782 76.0883 96.1822 78.8125 90.9785 78.8125H81.0219C75.8182 78.8125 71.218 76.0884 68.7165 71.5253C66.2149 66.9623 66.3922 61.6191 69.1907 57.2319L78.0315 43.3728H81.078C81.6821 43.3728 82.1718 42.8831 82.1718 42.279C82.1718 41.6749 81.6821 41.1851 81.078 41.1851H77.4319C76.5875 41.1851 75.9005 40.4982 75.9005 39.6538C75.9005 38.8094 76.5875 38.1225 77.4319 38.1225H77.4355H94.5684C95.4128 38.1225 96.0997 38.8094 96.0997 39.6538C96.0997 40.4982 95.4128 41.1851 94.5684 41.1851H90.9223C90.3182 41.1851 89.8285 41.6749 89.8285 42.279C89.8285 42.8831 90.3182 43.3728 90.9223 43.3728H93.9687L102.81 57.2319C105.608 61.6189 105.785 66.9622 103.284 71.5253Z" fill="white"/>
<path d="M87.9286 60.7217C87.6542 60.6247 87.3741 60.5238 87.094 60.4189V55.4615C87.8357 55.6797 88.3309 56.0335 88.3519 56.0488C88.8331 56.4093 89.5158 56.3137 89.8793 55.8338C90.2441 55.3523 90.1495 54.6663 89.668 54.3014C89.6038 54.2527 88.5868 53.4977 87.094 53.2119V52.1234C87.094 51.5192 86.6043 51.0295 86.0002 51.0295C85.3961 51.0295 84.9064 51.5192 84.9064 52.1234V53.204C84.7211 53.2396 84.5333 53.2846 84.343 53.3418C82.8036 53.8043 81.6529 55.1208 81.3399 56.7775C81.0543 58.2903 81.539 59.7493 82.6048 60.5852C83.1832 61.0388 83.9059 61.4531 84.9064 61.893V68.2367C84.045 68.1822 83.4688 67.9862 82.5082 67.3578C82.0028 67.0269 81.3247 67.1688 80.9941 67.6744C80.6633 68.1799 80.805 68.8578 81.3106 69.1885C82.7113 70.1048 83.6598 70.3644 84.9064 70.4257V71.5569C84.9064 72.161 85.3961 72.6507 86.0002 72.6507C86.6043 72.6507 87.094 72.161 87.094 71.5569V70.3121C89.4363 69.7991 90.8062 67.8446 91.1136 66.0161C91.5154 63.6257 90.2652 61.5476 87.9286 60.7217ZM83.9549 58.8638C83.5344 58.534 83.3561 57.8901 83.4896 57.1834C83.6123 56.5334 84.0496 55.7497 84.9064 55.4597V59.4656C84.5468 59.2739 84.2222 59.0735 83.9549 58.8638ZM88.9562 65.6533C88.7987 66.5902 88.1663 67.5838 87.0939 68.0229V62.7464C87.1296 62.7591 87.1634 62.7714 87.1995 62.7842C89.1606 63.4774 89.0399 65.1555 88.9562 65.6533Z" fill="white"/>
<path d="M86.0001 43.3727C86.2877 43.3727 86.5699 43.2557 86.7734 43.0522C86.9768 42.8488 87.0939 42.5666 87.0939 42.2789C87.0939 41.9912 86.9768 41.709 86.7734 41.5055C86.5699 41.3021 86.2877 41.1851 86.0001 41.1851C85.7124 41.1851 85.4302 41.3021 85.2267 41.5055C85.0233 41.709 84.9062 41.9912 84.9062 42.2789C84.9062 42.5666 85.0233 42.8488 85.2267 43.0522C85.4302 43.2557 85.7123 43.3727 86.0001 43.3727Z" fill="white"/>
</g>
<defs>
<clipPath id="clip0">
<rect width="56" height="56" fill="white" transform="translate(58 25)"/>
</clipPath>
</defs>
</svg>
