<svg width="200" height="55" viewBox="0 0 200 55" fill="none" xmlns="http://www.w3.org/2000/svg">
<g clip-path="url(#clip0)">
<path fill-rule="evenodd" clip-rule="evenodd" d="M11.5239 32.9746L10.9004 32.3281C8.97501 30.3321 7.91159 27.6577 7.93997 24.883C7.99963 19.0498 12.7714 14.3693 18.598 14.4288L32.3472 14.5692C31.2476 15.634 30.2364 17.1004 29.3049 18.9655C29.0544 19.467 28.8222 20.0199 28.5749 20.6849C28.4453 21.0333 28.3285 21.3639 28.1398 21.9104C26.865 25.6015 26.2047 26.6414 24.7554 26.6414C23.5223 26.6415 23.0373 26.4742 22.1083 25.9005C22.0338 25.8546 22.0338 25.8546 21.9565 25.8073C21.0473 25.2545 20.307 25.0165 19.0744 25.0166C17.1795 25.0166 16.3559 25.9416 14.1274 29.5104C13.3932 30.6861 12.9373 31.3608 12.4015 32.0197C12.1111 32.3768 11.8213 32.6935 11.5257 32.9736C11.5267 32.9727 11.5261 32.973 11.5239 32.9746Z" fill="#00C639"/>
<path fill-rule="evenodd" clip-rule="evenodd" d="M19.0747 25.8292C21.9141 25.8291 21.5094 27.4541 24.7557 27.4541C28.002 27.454 28.4079 22.579 30.0311 19.329C31.1119 17.165 32.2897 15.5826 33.5646 14.5818L33.5122 29.6661C33.5013 32.5175 32.3394 35.2434 30.2906 37.2242C26.099 41.2766 19.4198 41.16 15.3722 36.9638L14.3458 35.8997L9.80741 40.2873C9.16255 40.9108 8.13498 40.8928 7.51227 40.2473C6.88957 39.6017 6.90752 38.573 7.55238 37.9495L12.0907 33.5619C15.0179 30.7794 16.2695 25.8292 19.0747 25.8292Z" fill="url(#paint0_linear)"/>
<path d="M174.76 34.8312V20.5751C174.76 19.9376 175.071 19.6188 175.694 19.6188H180.065C181.467 19.6188 182.494 19.7634 183.146 20.0525C183.984 20.4009 184.644 20.9551 185.126 21.715C185.608 22.4748 185.849 23.3922 185.849 24.4672C185.849 25.4458 185.61 26.3428 185.132 27.1583C184.654 27.9738 183.999 28.5483 183.169 28.8819V28.9375C183.302 29.1006 183.476 29.3786 183.691 29.7715L186.35 34.6533C186.468 34.8535 186.528 35.0314 186.528 35.1871C186.528 35.2908 186.502 35.3835 186.45 35.4651C186.324 35.6801 186.072 35.7875 185.694 35.7875H184.459C183.962 35.7875 183.591 35.5689 183.347 35.1315L180.499 29.7493H177.674V34.8312C177.674 35.4688 177.363 35.7875 176.74 35.7875H175.694C175.071 35.7875 174.76 35.4688 174.76 34.8312ZM177.674 27.2028H180.321C181.107 27.2028 181.728 26.9711 182.184 26.5078C182.64 26.0444 182.868 25.4161 182.868 24.6229C182.868 23.5034 182.442 22.7695 181.589 22.4211C181.181 22.2357 180.599 22.1431 179.843 22.1431H177.674V27.2028ZM151.711 27.6325C151.711 26.1042 152.063 24.7112 152.768 23.4537C153.473 22.1962 154.462 21.202 155.735 20.4712C157.008 19.7404 158.441 19.375 160.035 19.375C161.629 19.375 163.063 19.7404 164.336 20.4712C165.609 21.202 166.596 22.1962 167.297 23.4537C167.998 24.7112 168.348 26.1042 168.348 27.6325C168.348 29.2054 167.998 30.6372 167.297 31.9282C166.596 33.2191 165.609 34.2392 164.336 34.9886C163.063 35.7379 161.629 36.1125 160.035 36.1125C158.441 36.1125 157.008 35.7379 155.735 34.9886C154.462 34.2392 153.473 33.2191 152.768 31.9282C152.063 30.6372 151.711 29.2054 151.711 27.6325ZM154.803 27.6325C154.803 29.287 155.305 30.6651 156.308 31.7668C157.312 32.8686 158.581 33.4194 160.116 33.4194C161.651 33.4194 162.918 32.8686 163.918 31.7668C164.918 30.6651 165.418 29.287 165.418 27.6325C165.418 26.0448 164.918 24.7205 163.918 23.6596C162.918 22.5986 161.651 22.0682 160.116 22.0682C158.581 22.0682 157.312 22.5986 156.308 23.6596C155.305 24.7205 154.803 26.0448 154.803 27.6325ZM131.827 27.677C131.827 26.5122 132.033 25.4198 132.444 24.3996C132.855 23.3795 133.424 22.5004 134.15 21.7621C134.876 21.0239 135.757 20.4415 136.794 20.0149C137.831 19.5883 138.95 19.375 140.15 19.375C142.143 19.375 143.906 19.9166 145.44 20.9998C145.706 21.2076 145.84 21.4413 145.84 21.7009C145.84 21.8938 145.766 22.1016 145.618 22.3241L145.206 22.9807C145.021 23.2775 144.795 23.4259 144.529 23.4259C144.343 23.4259 144.136 23.3517 143.906 23.2033C142.743 22.4466 141.532 22.0682 140.273 22.0682C139.421 22.0682 138.646 22.2184 137.95 22.5189C137.254 22.8194 136.681 23.2256 136.233 23.7375C135.785 24.2494 135.442 24.8392 135.205 25.5069C134.968 26.1747 134.85 26.8832 134.85 27.6325C134.85 28.3967 134.972 29.1237 135.216 29.8137C135.461 30.5037 135.809 31.1176 136.261 31.6555C136.713 32.1934 137.287 32.6219 137.983 32.9409C138.68 33.2599 139.45 33.4194 140.295 33.4194C141.628 33.4194 142.947 32.9483 144.251 32.0061C144.488 31.8354 144.706 31.7501 144.906 31.7501C145.158 31.7501 145.381 31.8874 145.573 32.1619L146.029 32.7851C146.192 33.0002 146.273 33.208 146.273 33.4083C146.273 33.6531 146.147 33.8831 145.895 34.0983C144.229 35.4411 142.325 36.1125 140.184 36.1125C138.524 36.1125 137.055 35.7397 135.778 34.9941C134.5 34.2485 133.522 33.2395 132.844 31.9671C132.166 30.6947 131.827 29.2647 131.827 27.677ZM121.926 34.8312V20.5751C121.926 19.9376 122.238 19.6188 122.862 19.6188H123.911C124.535 19.6188 124.847 19.9376 124.847 20.5751V34.8312C124.847 35.4688 124.535 35.7875 123.911 35.7875H122.862C122.238 35.7875 121.926 35.4688 121.926 34.8312ZM103.59 33.6865C103.604 33.5159 103.686 33.3341 103.834 33.1412L104.346 32.4178C104.525 32.173 104.717 32.0358 104.925 32.0061C104.955 31.9987 104.988 31.9949 105.025 31.9949C105.211 31.9949 105.422 32.0654 105.66 32.2064C106.788 33.0002 107.882 33.3972 108.943 33.3972C109.685 33.3972 110.273 33.2265 110.707 32.8852C111.141 32.544 111.359 32.0988 111.359 31.5498C111.359 31.2234 111.273 30.9247 111.103 30.6539C110.932 30.3831 110.7 30.1476 110.407 29.9473C110.114 29.747 109.778 29.5541 109.4 29.3686C109.021 29.1831 108.624 29.0013 108.209 28.8233C107.793 28.6452 107.378 28.456 106.962 28.2557C106.547 28.0554 106.15 27.8236 105.771 27.5602C105.393 27.2968 105.057 27.0075 104.764 26.6921C104.471 26.3768 104.239 25.9947 104.068 25.5459C103.898 25.097 103.812 24.6055 103.812 24.0713C103.812 23.144 104.053 22.3204 104.536 21.6008C105.018 20.8811 105.671 20.3303 106.495 19.9482C107.318 19.5661 108.242 19.375 109.266 19.375C110.127 19.375 110.932 19.503 111.681 19.759C112.431 20.0149 113.017 20.2987 113.44 20.6103C113.744 20.8255 113.896 21.0777 113.896 21.3671C113.896 21.5377 113.841 21.7195 113.729 21.9124L113.317 22.658C113.147 22.9919 112.913 23.1588 112.616 23.1588C112.438 23.1588 112.242 23.0994 112.026 22.9807C111.737 22.8101 111.485 22.671 111.269 22.5634C111.054 22.4558 110.756 22.3501 110.373 22.2462C109.991 22.1424 109.607 22.0904 109.221 22.0904C108.472 22.0904 107.875 22.2574 107.43 22.5912C106.984 22.9251 106.762 23.3665 106.762 23.9155C106.762 24.3236 106.901 24.6853 107.179 25.0006C107.457 25.3159 107.817 25.5848 108.259 25.8074C108.7 26.03 109.188 26.2507 109.722 26.4696C110.257 26.6884 110.793 26.9333 111.331 27.2041C111.869 27.4749 112.358 27.7809 112.8 28.1222C113.241 28.4635 113.601 28.9067 113.88 29.452C114.158 29.9974 114.297 30.6187 114.297 31.3161C114.297 31.9764 114.176 32.5959 113.935 33.1746C113.694 33.7533 113.349 34.2615 112.9 34.6992C112.451 35.1369 111.885 35.4819 111.203 35.7342C110.52 35.9864 109.767 36.1125 108.943 36.1125C107.919 36.1125 106.969 35.9401 106.094 35.5951C105.218 35.2501 104.513 34.8736 103.979 34.4655C103.838 34.3542 103.734 34.2392 103.667 34.1205C103.616 34.0315 103.59 33.9239 103.59 33.7978C103.582 33.7607 103.582 33.7236 103.59 33.6865ZM86.9466 34.8312V20.5751C86.9466 19.9376 87.2561 19.6188 87.8752 19.6188H95.6135C95.9157 19.6188 96.1497 19.7022 96.3155 19.869C96.4813 20.0358 96.5642 20.2712 96.5642 20.5751V21.209C96.5642 21.8317 96.2473 22.1431 95.6135 22.1431H89.8429V26.3799H94.3312C94.965 26.3799 95.2819 26.6912 95.2819 27.314V27.9478C95.2819 28.5928 94.965 28.9153 94.3312 28.9153H89.8429V33.2633H95.9783C96.6121 33.2633 96.929 33.5746 96.929 34.1974V34.8312C96.929 35.4688 96.6121 35.7875 95.9783 35.7875H87.8752C87.2561 35.7875 86.9466 35.4688 86.9466 34.8312ZM67.7121 34.8312V20.5751C67.7121 19.9376 68.0235 19.6188 68.6464 19.6188H73.0177C74.4191 19.6188 75.4461 19.7634 76.0987 20.0525C76.9366 20.4009 77.5965 20.9551 78.0785 21.715C78.5605 22.4748 78.8015 23.3922 78.8015 24.4672C78.8015 25.4458 78.5624 26.3428 78.0841 27.1583C77.6058 27.9738 76.9514 28.5483 76.1209 28.8819V28.9375C76.2544 29.1006 76.4286 29.3786 76.6437 29.7715L79.302 34.6533C79.4207 34.8535 79.48 35.0314 79.48 35.1871C79.48 35.2908 79.4541 35.3835 79.4022 35.4651C79.2761 35.6801 79.024 35.7875 78.6458 35.7875H77.4112C76.9143 35.7875 76.5436 35.5689 76.2989 35.1315L73.4514 29.7493H70.6262V34.8312C70.6262 35.4688 70.3148 35.7875 69.6919 35.7875H68.6464C68.0235 35.7875 67.7121 35.4688 67.7121 34.8312ZM70.6262 27.2028H73.2735C74.0595 27.2028 74.6805 26.9711 75.1365 26.5078C75.5926 26.0444 75.8206 25.4161 75.8206 24.6229C75.8206 23.5034 75.3942 22.7695 74.5415 22.4211C74.1336 22.2357 73.5515 22.1431 72.7952 22.1431H70.6262V27.2028ZM46.4486 27.677C46.4486 26.5122 46.6542 25.4198 47.0653 24.3996C47.4765 23.3795 48.0451 22.5004 48.7711 21.7621C49.4971 21.0239 50.3787 20.4415 51.4159 20.0149C52.453 19.5883 53.5717 19.375 54.7718 19.375C56.7647 19.375 58.5278 19.9166 60.0613 20.9998C60.328 21.2076 60.4614 21.4413 60.4614 21.7009C60.4614 21.8938 60.3873 22.1016 60.2391 22.3241L59.828 22.9807C59.6428 23.2775 59.4168 23.4259 59.1501 23.4259C58.9649 23.4259 58.7575 23.3517 58.5278 23.2033C57.3647 22.4466 56.1535 22.0682 54.8941 22.0682C54.0421 22.0682 53.2679 22.2184 52.5716 22.5189C51.8752 22.8194 51.3029 23.2256 50.8547 23.7375C50.4065 24.2494 50.0639 24.8392 49.8268 25.5069C49.5897 26.1747 49.4712 26.8832 49.4712 27.6325C49.4712 28.3967 49.5934 29.1237 49.8379 29.8137C50.0824 30.5037 50.4306 31.1176 50.8825 31.6555C51.3344 32.1934 51.9085 32.6219 52.6049 32.9409C53.3013 33.2599 54.0717 33.4194 54.9163 33.4194C56.2498 33.4194 57.5684 32.9483 58.8723 32.0061C59.1094 31.8354 59.3279 31.7501 59.5279 31.7501C59.7798 31.7501 60.0021 31.8874 60.1947 32.1619L60.6503 32.7851C60.8133 33.0002 60.8948 33.208 60.8948 33.4083C60.8948 33.6531 60.7688 33.8831 60.517 34.0983C58.8501 35.4411 56.9462 36.1125 54.8052 36.1125C53.1457 36.1125 51.677 35.7397 50.3991 34.9941C49.1211 34.2485 48.1433 33.2395 47.4654 31.9671C46.7875 30.6947 46.4486 29.2647 46.4486 27.677Z" fill="#2C2C2E"/>
</g>
<defs>
<linearGradient id="paint0_linear" x1="32.8732" y1="40.202" x2="18.9667" y2="25.8176" gradientUnits="userSpaceOnUse">
<stop stop-color="#00C639"/>
<stop offset="1" stop-color="#006E20"/>
</linearGradient>
<clipPath id="clip0">
<rect width="199" height="39" fill="white" transform="translate(1 8)"/>
</clipPath>
</defs>
</svg>
