<svg width="170" height="105" viewBox="0 0 170 105" fill="none" xmlns="http://www.w3.org/2000/svg">
<circle cx="82.5" cy="52.5" r="46.5" fill="url(#paint0_linear)" stroke="url(#paint1_linear)" stroke-width="2"/>
<path d="M63.75 52.125C63.75 52.3571 63.8422 52.5796 64.0063 52.7437C64.1704 52.9078 64.3929 53 64.625 53H75.125C75.3571 53 75.5796 52.9078 75.7437 52.7437C75.9078 52.5796 76 52.3571 76 52.125V41.625C76 41.3929 75.9078 41.1704 75.7437 41.0063C75.5796 40.8422 75.3571 40.75 75.125 40.75H64.625C64.3929 40.75 64.1704 40.8422 64.0063 41.0063C63.8422 41.1704 63.75 41.3929 63.75 41.625V52.125ZM65.5 51.25V46H67.25V48.625C67.25 48.7981 67.3013 48.9672 67.3975 49.1111C67.4936 49.255 67.6303 49.3672 67.7901 49.4334C67.95 49.4997 68.126 49.517 68.2957 49.4832C68.4655 49.4495 68.6214 49.3661 68.7437 49.2437L69.875 48.1124L71.0063 49.2437C71.1286 49.3661 71.2845 49.4495 71.4543 49.4832C71.624 49.517 71.8 49.4997 71.9599 49.4334C72.1197 49.3672 72.2564 49.255 72.3525 49.1111C72.4487 48.9672 72.5 48.7981 72.5 48.625V46H74.25V51.25H65.5ZM69 42.5H70.75V46.5126L70.4937 46.2563C70.4125 46.175 70.316 46.1106 70.2099 46.0666C70.1037 46.0226 69.9899 46 69.875 46C69.7601 46 69.6463 46.0226 69.5401 46.0666C69.434 46.1106 69.3375 46.175 69.2563 46.2563L69 46.5126V42.5ZM74.25 44.25H72.5V42.5H74.25V44.25ZM67.25 42.5V44.25H65.5V42.5H67.25Z" fill="white"/>
<path d="M81.25 52.9999C81.2499 53.4811 81.3822 53.9532 81.6323 54.3643C81.8824 54.7755 82.2407 55.11 82.668 55.3313C83.0954 55.5526 83.5754 55.6521 84.0555 55.619C84.5356 55.5859 84.9974 55.4215 85.3904 55.1437C85.7834 54.8658 86.0924 54.4853 86.2837 54.0437C86.475 53.6021 86.5412 53.1164 86.4751 52.6397C86.409 52.163 86.2131 51.7137 85.9089 51.3408C85.6046 50.9679 85.2037 50.6858 84.75 50.5254V48.4744C85.2615 48.2933 85.7044 47.9581 86.0176 47.515C86.3308 47.0718 86.4989 46.5425 86.4989 45.9999C86.4989 45.4572 86.3308 44.9279 86.0176 44.4848C85.7044 44.0417 85.2615 43.7065 84.75 43.5254V41.4744C85.3338 41.268 85.8259 40.8618 86.1392 40.3277C86.4525 39.7936 86.5669 39.1659 86.4622 38.5556C86.3575 37.9453 86.0404 37.3917 85.5669 36.9925C85.0935 36.5934 84.4942 36.3745 83.875 36.3745C83.2558 36.3745 82.6565 36.5934 82.1831 36.9925C81.7096 37.3917 81.3925 37.9453 81.2878 38.5556C81.1831 39.1659 81.2975 39.7936 81.6108 40.3277C81.9241 40.8618 82.4162 41.268 83 41.4744V43.5254C82.4885 43.7065 82.0456 44.0417 81.7324 44.4848C81.4192 44.9279 81.2511 45.4572 81.2511 45.9999C81.2511 46.5425 81.4192 47.0718 81.7324 47.515C82.0456 47.9581 82.4885 48.2933 83 48.4744V50.5254C82.4886 50.7068 82.0459 51.0421 81.7326 51.4851C81.4193 51.9281 81.2507 52.4573 81.25 52.9999ZM83.875 53.8749C83.7019 53.8749 83.5328 53.8236 83.3889 53.7274C83.245 53.6313 83.1328 53.4946 83.0666 53.3347C83.0004 53.1748 82.9831 52.9989 83.0168 52.8292C83.0506 52.6594 83.1339 52.5035 83.2563 52.3812C83.3787 52.2588 83.5346 52.1755 83.7043 52.1417C83.874 52.1079 84.05 52.1253 84.2098 52.1915C84.3697 52.2577 84.5064 52.3699 84.6025 52.5138C84.6987 52.6577 84.75 52.8268 84.75 52.9999C84.7497 53.2319 84.6575 53.4543 84.4934 53.6183C84.3294 53.7824 84.107 53.8746 83.875 53.8749ZM83.875 38.1249C84.0481 38.1249 84.2172 38.1762 84.3611 38.2723C84.505 38.3685 84.6172 38.5052 84.6834 38.665C84.7496 38.8249 84.7669 39.0009 84.7332 39.1706C84.6994 39.3403 84.6161 39.4962 84.4937 39.6186C84.3713 39.741 84.2154 39.8243 84.0457 39.8581C83.876 39.8918 83.7 39.8745 83.5402 39.8083C83.3803 39.7421 83.2436 39.6299 83.1475 39.486C83.0513 39.3421 83 39.1729 83 38.9999C83.0003 38.7679 83.0925 38.5455 83.2566 38.3815C83.4206 38.2174 83.643 38.1251 83.875 38.1249ZM83.875 45.1249C84.0481 45.1249 84.2172 45.1762 84.3611 45.2723C84.505 45.3685 84.6172 45.5052 84.6834 45.665C84.7496 45.8249 84.7669 46.0009 84.7332 46.1706C84.6994 46.3403 84.6161 46.4962 84.4937 46.6186C84.3713 46.741 84.2154 46.8243 84.0457 46.8581C83.876 46.8918 83.7 46.8745 83.5402 46.8083C83.3803 46.7421 83.2436 46.6299 83.1475 46.486C83.0513 46.3421 83 46.1729 83 45.9999C83.0003 45.7679 83.0925 45.5455 83.2566 45.3815C83.4206 45.2174 83.643 45.1251 83.875 45.1249Z" fill="white"/>
<path d="M89.125 39.875H97.875C98.1071 39.875 98.3296 39.7828 98.4937 39.6187C98.6578 39.4546 98.75 39.2321 98.75 39C98.75 38.7679 98.6578 38.5454 98.4937 38.3813C98.3296 38.2172 98.1071 38.125 97.875 38.125H89.125C88.8929 38.125 88.6704 38.2172 88.5063 38.3813C88.3422 38.5454 88.25 38.7679 88.25 39C88.25 39.2321 88.3422 39.4546 88.5063 39.6187C88.6704 39.7828 88.8929 39.875 89.125 39.875Z" fill="white"/>
<path d="M101.375 39.875H103.125C103.357 39.875 103.58 39.7828 103.744 39.6187C103.908 39.4546 104 39.2321 104 39C104 38.7679 103.908 38.5454 103.744 38.3813C103.58 38.2172 103.357 38.125 103.125 38.125H101.375C101.143 38.125 100.92 38.2172 100.756 38.3813C100.592 38.5454 100.5 38.7679 100.5 39C100.5 39.2321 100.592 39.4546 100.756 39.6187C100.92 39.7828 101.143 39.875 101.375 39.875Z" fill="white"/>
<path d="M89.125 46.875H97.875C98.1071 46.875 98.3296 46.7828 98.4937 46.6187C98.6578 46.4546 98.75 46.2321 98.75 46C98.75 45.7679 98.6578 45.5454 98.4937 45.3813C98.3296 45.2172 98.1071 45.125 97.875 45.125H89.125C88.8929 45.125 88.6704 45.2172 88.5063 45.3813C88.3422 45.5454 88.25 45.7679 88.25 46C88.25 46.2321 88.3422 46.4546 88.5063 46.6187C88.6704 46.7828 88.8929 46.875 89.125 46.875Z" fill="white"/>
<path d="M101.375 46.875H103.125C103.357 46.875 103.58 46.7828 103.744 46.6187C103.908 46.4546 104 46.2321 104 46C104 45.7679 103.908 45.5454 103.744 45.3813C103.58 45.2172 103.357 45.125 103.125 45.125H101.375C101.143 45.125 100.92 45.2172 100.756 45.3813C100.592 45.5454 100.5 45.7679 100.5 46C100.5 46.2321 100.592 46.4546 100.756 46.6187C100.92 46.7828 101.143 46.875 101.375 46.875Z" fill="white"/>
<path d="M89.125 53.875H97.875C98.1071 53.875 98.3296 53.7828 98.4937 53.6187C98.6578 53.4546 98.75 53.2321 98.75 53C98.75 52.7679 98.6578 52.5454 98.4937 52.3813C98.3296 52.2172 98.1071 52.125 97.875 52.125H89.125C88.8929 52.125 88.6704 52.2172 88.5063 52.3813C88.3422 52.5454 88.25 52.7679 88.25 53C88.25 53.2321 88.3422 53.4546 88.5063 53.6187C88.6704 53.7828 88.8929 53.875 89.125 53.875Z" fill="white"/>
<path d="M101.375 53.875H103.125C103.357 53.875 103.58 53.7828 103.744 53.6187C103.908 53.4546 104 53.2321 104 53C104 52.7679 103.908 52.5454 103.744 52.3813C103.58 52.2172 103.357 52.125 103.125 52.125H101.375C101.143 52.125 100.92 52.2172 100.756 52.3813C100.592 52.5454 100.5 52.7679 100.5 53C100.5 53.2321 100.592 53.4546 100.756 53.6187C100.92 53.7828 101.143 53.875 101.375 53.875Z" fill="white"/>
<path d="M104.875 29.375H61.125C59.9651 29.3763 58.853 29.8377 58.0328 30.6578C57.2127 31.478 56.7513 32.5901 56.75 33.75V63.5C56.7513 64.6599 57.2127 65.772 58.0328 66.5922C58.853 67.4123 59.9651 67.8737 61.125 67.875H74.9326L73.392 75.5784C73.3666 75.7053 73.3697 75.8363 73.401 75.9619C73.4324 76.0876 73.4912 76.2046 73.5733 76.3048C73.6554 76.4049 73.7586 76.4855 73.8757 76.5409C73.9927 76.5963 74.1205 76.625 74.25 76.625H91.75C91.8795 76.625 92.0073 76.5963 92.1243 76.5409C92.2414 76.4855 92.3446 76.4049 92.4267 76.3048C92.5088 76.2046 92.5676 76.0876 92.599 75.9619C92.6303 75.8363 92.6334 75.7053 92.608 75.5784L91.0674 67.875H104.875C106.035 67.8737 107.147 67.4123 107.967 66.5922C108.787 65.772 109.249 64.6599 109.25 63.5V33.75C109.249 32.5901 108.787 31.478 107.967 30.6578C107.147 29.8377 106.035 29.3763 104.875 29.375ZM61.125 31.125H104.875C105.571 31.1258 106.238 31.4026 106.73 31.8947C107.222 32.3868 107.499 33.0541 107.5 33.75V59.125H58.5V33.75C58.5008 33.0541 58.7776 32.3868 59.2697 31.8947C59.7618 31.4026 60.4291 31.1258 61.125 31.125ZM90.6826 74.875H75.3174L76.7174 67.875H89.2826L90.6826 74.875ZM104.875 66.125H61.125C60.4291 66.1242 59.7618 65.8474 59.2697 65.3553C58.7776 64.8632 58.5008 64.1959 58.5 63.5V60.875H107.5V63.5C107.499 64.1959 107.222 64.8632 106.73 65.3553C106.238 65.8474 105.571 66.1242 104.875 66.125Z" fill="white"/>
<path d="M62.875 34.625C63.3582 34.625 63.75 34.2332 63.75 33.75C63.75 33.2668 63.3582 32.875 62.875 32.875C62.3918 32.875 62 33.2668 62 33.75C62 34.2332 62.3918 34.625 62.875 34.625Z" fill="white"/>
<path d="M66.375 34.625C66.8582 34.625 67.25 34.2332 67.25 33.75C67.25 33.2668 66.8582 32.875 66.375 32.875C65.8918 32.875 65.5 33.2668 65.5 33.75C65.5 34.2332 65.8918 34.625 66.375 34.625Z" fill="white"/>
<path d="M69.875 34.625C70.3582 34.625 70.75 34.2332 70.75 33.75C70.75 33.2668 70.3582 32.875 69.875 32.875C69.3918 32.875 69 33.2668 69 33.75C69 34.2332 69.3918 34.625 69.875 34.625Z" fill="white"/>
<path d="M83.875 62.625H82.125C81.8929 62.625 81.6704 62.7172 81.5063 62.8813C81.3422 63.0454 81.25 63.2679 81.25 63.5C81.25 63.7321 81.3422 63.9546 81.5063 64.1187C81.6704 64.2828 81.8929 64.375 82.125 64.375H83.875C84.1071 64.375 84.3296 64.2828 84.4937 64.1187C84.6578 63.9546 84.75 63.7321 84.75 63.5C84.75 63.2679 84.6578 63.0454 84.4937 62.8813C84.3296 62.7172 84.1071 62.625 83.875 62.625Z" fill="white"/>
<defs>
<linearGradient id="paint0_linear" x1="82.5" y1="5" x2="82.5" y2="100" gradientUnits="userSpaceOnUse">
<stop stop-color="#6483EA"/>
<stop offset="1" stop-color="#5D9FEB"/>
</linearGradient>
<linearGradient id="paint1_linear" x1="82.5" y1="5" x2="82.5" y2="100" gradientUnits="userSpaceOnUse">
<stop stop-color="#6483EA"/>
<stop offset="1" stop-color="#5D9FEB"/>
</linearGradient>
</defs>
</svg>
