<svg width="170" height="105" viewBox="0 0 170 105" fill="none" xmlns="http://www.w3.org/2000/svg">
<circle cx="84.5" cy="52.5" r="47.5" fill="#375363"/>
<path d="M61.375 74H102.702L104.519 77.7746C104.824 78.4003 105.365 78.8792 106.023 79.106C106.681 79.3329 107.403 79.2891 108.028 78.9843C108.654 78.6797 109.132 78.1394 109.36 77.4821C109.587 76.8248 109.544 76.1042 109.24 75.4785L108.529 74H108.625C109.321 73.9992 109.988 73.7224 110.48 73.2303C110.972 72.7382 111.249 72.0709 111.25 71.375V29.375C111.249 28.6791 110.972 28.0118 110.48 27.5197C109.988 27.0276 109.321 26.7508 108.625 26.75H61.375C60.6791 26.7508 60.0118 27.0276 59.5197 27.5197C59.0276 28.0118 58.7508 28.6791 58.75 29.375V71.375C58.7508 72.0709 59.0276 72.7382 59.5197 73.2303C60.0118 73.7224 60.6791 73.9992 61.375 74ZM107.706 76.9094C107.65 77.0727 107.547 77.2156 107.409 77.3203C107.272 77.4249 107.107 77.4866 106.934 77.4975C106.762 77.5084 106.59 77.468 106.441 77.3815C106.291 77.295 106.171 77.1662 106.094 77.0113L102.351 69.2347L103.925 68.4681L107.665 76.2408C107.716 76.344 107.746 76.4562 107.753 76.571C107.76 76.6857 107.744 76.8008 107.706 76.9094ZM100.834 66.0812L102.407 65.3145L103.166 66.8915L101.592 67.6584L100.834 66.0812ZM108.625 72.25H107.686L105.195 67.0728C105.18 67.0153 105.159 66.9595 105.133 66.9062C105.109 66.8561 105.079 66.8085 105.046 66.764L103.602 63.7637C103.552 63.6598 103.482 63.5669 103.396 63.4902C103.31 63.4134 103.21 63.3545 103.101 63.3166C102.992 63.2788 102.877 63.2629 102.762 63.2697C102.647 63.2766 102.534 63.3061 102.43 63.3566L101.644 63.7394L100.936 62.2869C102.447 61.54 103.788 60.4891 104.875 59.2C105.961 57.911 106.77 56.4115 107.25 54.7954C107.73 53.1794 107.871 51.4817 107.665 49.8085C107.459 48.1353 106.909 46.5228 106.051 45.0718C105.192 43.6208 104.044 42.3627 102.677 41.3762C101.31 40.3896 99.7536 39.696 98.1061 39.3386C96.4586 38.9812 94.755 38.9678 93.102 39.2993C91.4491 39.6307 89.8824 40.2998 88.5 41.2647V38.125C88.5 37.8929 88.4078 37.6704 88.2437 37.5063C88.0796 37.3422 87.8571 37.25 87.625 37.25H63.125C62.8929 37.25 62.6704 37.3422 62.5063 37.5063C62.3422 37.6704 62.25 37.8929 62.25 38.125V48.625C62.25 48.8571 62.3422 49.0796 62.5063 49.2437C62.6704 49.4078 62.8929 49.5 63.125 49.5H83.3842C83.0754 51.5665 83.3003 53.6777 84.0375 55.6328C84.7746 57.588 85.9996 59.3221 87.596 60.6702C89.1923 62.0184 91.107 62.9359 93.1579 63.3355C95.2088 63.7351 97.3279 63.6034 99.3136 62.9531L100.071 64.5063L99.2839 64.8891C99.0761 64.9905 98.9168 65.1701 98.841 65.3886C98.7651 65.6071 98.7789 65.8467 98.8792 66.0551L101.86 72.25H61.375C61.143 72.2497 60.9206 72.1575 60.7566 71.9934C60.5925 71.8294 60.5003 71.607 60.5 71.375V35.5H109.5V71.375C109.5 71.607 109.407 71.8294 109.243 71.9934C109.079 72.1575 108.857 72.2497 108.625 72.25ZM83.7787 47.75H64V46H78.875C79.1071 46 79.3296 45.9078 79.4937 45.7437C79.6578 45.5796 79.75 45.3571 79.75 45.125C79.75 44.8929 79.6578 44.6704 79.4937 44.5063C79.3296 44.3422 79.1071 44.25 78.875 44.25H64V42.5H70.125C70.3571 42.5 70.5796 42.4078 70.7437 42.2437C70.9078 42.0796 71 41.8571 71 41.625C71 41.3929 70.9078 41.1704 70.7437 41.0063C70.5796 40.8422 70.3571 40.75 70.125 40.75H64V39H86.75V42.748C85.3726 44.1528 84.3535 45.8684 83.7787 47.75ZM95.5 40.8117C97.5767 40.8117 99.6068 41.4275 101.333 42.5813C103.06 43.735 104.406 45.3749 105.201 47.2935C105.995 49.2121 106.203 51.3233 105.798 53.3601C105.393 55.3969 104.393 57.2679 102.925 58.7363C101.456 60.2048 99.5852 61.2048 97.5484 61.6099C95.5116 62.0151 93.4004 61.8071 91.4818 61.0124C89.5632 60.2177 87.9233 58.8719 86.7696 57.1452C85.6158 55.4185 85 53.3884 85 51.3117C85.0032 48.5279 86.1104 45.859 88.0789 43.8906C90.0473 41.9221 92.7162 40.8148 95.5 40.8117ZM61.375 28.5H108.625C108.857 28.5003 109.079 28.5925 109.243 28.7566C109.407 28.9206 109.5 29.143 109.5 29.375V33.75H60.5V29.375C60.5003 29.143 60.5925 28.9206 60.7566 28.7566C60.9206 28.5925 61.143 28.5003 61.375 28.5Z" fill="white"/>
<path d="M70.125 32C70.6082 32 71 31.6082 71 31.125C71 30.6418 70.6082 30.25 70.125 30.25C69.6418 30.25 69.25 30.6418 69.25 31.125C69.25 31.6082 69.6418 32 70.125 32Z" fill="white"/>
<path d="M66.625 32C67.1082 32 67.5 31.6082 67.5 31.125C67.5 30.6418 67.1082 30.25 66.625 30.25C66.1418 30.25 65.75 30.6418 65.75 31.125C65.75 31.6082 66.1418 32 66.625 32Z" fill="white"/>
<path d="M63.125 32C63.6082 32 64 31.6082 64 31.125C64 30.6418 63.6082 30.25 63.125 30.25C62.6418 30.25 62.25 30.6418 62.25 31.125C62.25 31.6082 62.6418 32 63.125 32Z" fill="white"/>
<path d="M63.125 53H70.125C70.3571 53 70.5796 52.9078 70.7437 52.7437C70.9078 52.5796 71 52.3571 71 52.125C71 51.8929 70.9078 51.6704 70.7437 51.5063C70.5796 51.3422 70.3571 51.25 70.125 51.25H63.125C62.8929 51.25 62.6704 51.3422 62.5063 51.5063C62.3422 51.6704 62.25 51.8929 62.25 52.125C62.25 52.3571 62.3422 52.5796 62.5063 52.7437C62.6704 52.9078 62.8929 53 63.125 53Z" fill="white"/>
<path d="M62.25 55.625C62.25 55.8571 62.3422 56.0796 62.5063 56.2437C62.6704 56.4078 62.8929 56.5 63.125 56.5H78.875C79.1071 56.5 79.3296 56.4078 79.4937 56.2437C79.6578 56.0796 79.75 55.8571 79.75 55.625C79.75 55.3929 79.6578 55.1704 79.4937 55.0063C79.3296 54.8422 79.1071 54.75 78.875 54.75H63.125C62.8929 54.75 62.6704 54.8422 62.5063 55.0063C62.3422 55.1704 62.25 55.3929 62.25 55.625Z" fill="white"/>
<path d="M63.125 60H70.125C70.3571 60 70.5796 59.9078 70.7437 59.7437C70.9078 59.5796 71 59.3571 71 59.125C71 58.8929 70.9078 58.6704 70.7437 58.5063C70.5796 58.3422 70.3571 58.25 70.125 58.25H63.125C62.8929 58.25 62.6704 58.3422 62.5063 58.5063C62.3422 58.6704 62.25 58.8929 62.25 59.125C62.25 59.3571 62.3422 59.5796 62.5063 59.7437C62.6704 59.9078 62.8929 60 63.125 60Z" fill="white"/>
<path d="M62.25 62.625C62.25 62.8571 62.3422 63.0796 62.5063 63.2437C62.6704 63.4078 62.8929 63.5 63.125 63.5H83.25C83.4821 63.5 83.7046 63.4078 83.8687 63.2437C84.0328 63.0796 84.125 62.8571 84.125 62.625C84.125 62.3929 84.0328 62.1704 83.8687 62.0063C83.7046 61.8422 83.4821 61.75 83.25 61.75H63.125C62.8929 61.75 62.6704 61.8422 62.5063 62.0063C62.3422 62.1704 62.25 62.3929 62.25 62.625Z" fill="white"/>
<path d="M63.125 67H70.125C70.3571 67 70.5796 66.9078 70.7437 66.7437C70.9078 66.5796 71 66.3571 71 66.125C71 65.8929 70.9078 65.6704 70.7437 65.5063C70.5796 65.3422 70.3571 65.25 70.125 65.25H63.125C62.8929 65.25 62.6704 65.3422 62.5063 65.5063C62.3422 65.6704 62.25 65.8929 62.25 66.125C62.25 66.3571 62.3422 66.5796 62.5063 66.7437C62.6704 66.9078 62.8929 67 63.125 67Z" fill="white"/>
<path d="M62.25 69.625C62.25 69.8571 62.3422 70.0796 62.5063 70.2437C62.6704 70.4078 62.8929 70.5 63.125 70.5H91.125C91.3571 70.5 91.5796 70.4078 91.7437 70.2437C91.9078 70.0796 92 69.8571 92 69.625C92 69.3929 91.9078 69.1704 91.7437 69.0063C91.5796 68.8422 91.3571 68.75 91.125 68.75H63.125C62.8929 68.75 62.6704 68.8422 62.5063 69.0063C62.3422 69.1704 62.25 69.3929 62.25 69.625Z" fill="white"/>
<path d="M95.5 53C95.7321 53 95.9546 52.9078 96.1187 52.7437C96.2828 52.5796 96.375 52.3571 96.375 52.125V50.375C96.375 50.1429 96.2828 49.9204 96.1187 49.7563C95.9546 49.5922 95.7321 49.5 95.5 49.5C95.2679 49.5 95.0454 49.5922 94.8813 49.7563C94.7172 49.9204 94.625 50.1429 94.625 50.375V52.125C94.625 52.3571 94.7172 52.5796 94.8813 52.7437C95.0454 52.9078 95.2679 53 95.5 53Z" fill="white"/>
<path d="M92 53C92.2321 53 92.4546 52.9078 92.6187 52.7437C92.7828 52.5796 92.875 52.3571 92.875 52.125V50.375C92.875 50.1429 92.7828 49.9204 92.6187 49.7563C92.4546 49.5922 92.2321 49.5 92 49.5C91.7679 49.5 91.5454 49.5922 91.3813 49.7563C91.2172 49.9204 91.125 50.1429 91.125 50.375V52.125C91.125 52.3571 91.2172 52.5796 91.3813 52.7437C91.5454 52.9078 91.7679 53 92 53Z" fill="white"/>
<path d="M99 53C99.2321 53 99.4546 52.9078 99.6187 52.7437C99.7828 52.5796 99.875 52.3571 99.875 52.125V48.625C99.875 48.3929 99.7828 48.1704 99.6187 48.0063C99.4546 47.8422 99.2321 47.75 99 47.75C98.7679 47.75 98.5454 47.8422 98.3813 48.0063C98.2172 48.1704 98.125 48.3929 98.125 48.625V52.125C98.125 52.3571 98.2172 52.5796 98.3813 52.7437C98.5454 52.9078 98.7679 53 99 53Z" fill="white"/>
<path d="M95.4973 60.0642C97.2279 60.0642 98.9196 59.551 100.359 58.5896C101.797 57.6281 102.919 56.2615 103.581 54.6627C104.244 53.0638 104.417 51.3045 104.079 49.6072C103.742 47.9098 102.908 46.3507 101.684 45.127C100.461 43.9033 98.9017 43.07 97.2043 42.7323C95.507 42.3947 93.7477 42.568 92.1488 43.2303C90.55 43.8925 89.1834 45.014 88.222 46.453C87.2605 47.8919 86.7473 49.5836 86.7473 51.3142C86.7499 53.634 87.6727 55.8581 89.313 57.4985C90.9534 59.1388 93.1775 60.0616 95.4973 60.0642ZM95.4973 44.3142C96.8818 44.3142 98.2352 44.7248 99.3863 45.4939C100.537 46.2631 101.435 47.3563 101.964 48.6354C102.494 49.9145 102.633 51.322 102.363 52.6798C102.093 54.0377 101.426 55.285 100.447 56.2639C99.4681 57.2429 98.2208 57.9096 96.8629 58.1797C95.5051 58.4498 94.0976 58.3112 92.8185 57.7814C91.5394 57.2515 90.4462 56.3543 89.677 55.2032C88.9079 54.0521 88.4973 52.6987 88.4973 51.3142C88.4994 49.4583 89.2376 47.6791 90.5499 46.3668C91.8622 45.0545 93.6414 44.3163 95.4973 44.3142Z" fill="white"/>
</svg>
